<svg  viewBox="0 0 20 22" fill="none" xmlns="http://www.w3.org/2000/svg">
<path d="M13.3333 6.14037C13.3333 5.65591 13.7064 5.26318 14.1667 5.26318C14.6269 5.26318 15 5.65591 15 6.14037C15 6.62483 14.6269 7.01756 14.1667 7.01756C13.7064 7.01756 13.3333 6.62483 13.3333 6.14037Z" fill="#E6E6E6"/>
<path fill-rule="evenodd" clip-rule="evenodd" d="M9.99999 6.35967C7.81386 6.35967 6.04166 8.22515 6.04166 10.5263C6.04166 12.8275 7.81386 14.693 9.99999 14.693C12.1861 14.693 13.9583 12.8275 13.9583 10.5263C13.9583 8.22515 12.1861 6.35967 9.99999 6.35967ZM7.29166 10.5263C7.29166 8.95184 8.50422 7.67546 9.99999 7.67546C11.4958 7.67546 12.7083 8.95184 12.7083 10.5263C12.7083 12.1008 11.4958 13.3772 9.99999 13.3772C8.50422 13.3772 7.29166 12.1008 7.29166 10.5263Z" fill="#E6E6E6"/>
<path fill-rule="evenodd" clip-rule="evenodd" d="M14.3819 2.48512C11.4931 2.14526 8.50694 2.14526 5.61813 2.48512C3.94142 2.68238 2.58781 4.07274 2.39068 5.84689C2.04523 8.95592 2.04523 12.0967 2.39068 15.2058C2.58781 16.9799 3.94142 18.3703 5.61813 18.5675C8.50695 18.9074 11.4931 18.9074 14.3819 18.5675C16.0586 18.3703 17.4122 16.9799 17.6093 15.2058C17.9548 12.0967 17.9548 8.95592 17.6093 5.84689C17.4122 4.07274 16.0586 2.68238 14.3819 2.48512ZM5.75697 3.79277C8.55351 3.46376 11.4465 3.46376 14.243 3.79277C15.3515 3.92317 16.2394 4.84388 16.3678 5.99974C16.7019 9.00722 16.7019 12.0454 16.3678 15.0529C16.2394 16.2088 15.3515 17.1295 14.243 17.2599C11.4465 17.5889 8.55351 17.5889 5.75697 17.2599C4.64855 17.1295 3.76064 16.2088 3.63222 15.0529C3.29805 12.0454 3.29805 9.00722 3.63222 5.99974C3.76064 4.84388 4.64855 3.92317 5.75697 3.79277Z" fill="#E6E6E6"/>
</svg>
