<svg  viewBox="0 0 20 22" fill="none" xmlns="http://www.w3.org/2000/svg">
<path fill-rule="evenodd" clip-rule="evenodd" d="M4.82295 12.2979C4.85943 12.3108 4.89624 12.32 4.93303 12.3256C4.97314 12.4248 5.02497 12.5532 5.08543 12.7033C5.233 13.0696 5.43182 13.5651 5.63705 14.082C6.05559 15.1361 6.47777 16.2227 6.57101 16.5337C6.68643 16.9182 6.80844 17.1796 6.94163 17.3581C7.0105 17.4504 7.09016 17.531 7.18336 17.592C7.23027 17.6227 7.27984 17.6479 7.33157 17.6666C7.33385 17.6675 7.33612 17.6683 7.3384 17.6691C7.60508 17.7751 7.84821 17.7309 8.00044 17.6769C8.08189 17.6481 8.14779 17.6132 8.1945 17.5849C8.21831 17.5705 8.23843 17.557 8.25448 17.5457L8.25827 17.543L10.6135 15.997L13.3339 18.1924C13.374 18.2248 13.4178 18.252 13.4642 18.2733C13.791 18.4234 14.1075 18.4758 14.4052 18.433C14.7024 18.3902 14.9384 18.2588 15.114 18.1109C15.286 17.966 15.4026 17.8038 15.4753 17.6832C15.5123 17.6216 15.5402 17.5672 15.5598 17.5255C15.5697 17.5045 15.5776 17.4865 15.5837 17.4719L15.5916 17.4528L15.5946 17.4453L15.5958 17.4421L15.5964 17.4406L15.5969 17.4393C15.6112 17.4016 15.6221 17.3627 15.6296 17.323L18.1132 4.14271C18.1211 4.10055 18.1251 4.05768 18.1251 4.01471C18.1251 3.62873 17.9869 3.26171 17.6621 3.039C17.3844 2.84865 17.0751 2.84046 16.8796 2.85608C16.6688 2.87293 16.474 2.92772 16.3433 2.97151C16.2753 2.99429 16.2183 3.01628 16.1772 3.03305C16.1565 3.04148 16.1396 3.04872 16.127 3.05423L16.1175 3.05843L2.18938 8.80979L2.18757 8.81047C2.1787 8.81387 2.1673 8.81834 2.15376 8.82389C2.12679 8.83495 2.09065 8.85052 2.04844 8.87066C1.96612 8.90993 1.85064 8.97131 1.73213 9.05673C1.54281 9.1932 1.1074 9.56698 1.18072 10.1839C1.23921 10.6761 1.55953 10.9783 1.75468 11.1237C1.86184 11.2035 1.96365 11.2606 2.03779 11.2977C2.07219 11.315 2.1436 11.3455 2.17459 11.3588L2.1824 11.3621L4.82295 12.2979ZM16.6049 4.27001L16.603 4.2709C16.596 4.27407 16.5891 4.27711 16.582 4.28002L2.637 10.0384C2.62972 10.0414 2.62238 10.0442 2.615 10.0469L2.60724 10.05C2.59832 10.0537 2.5833 10.0601 2.56445 10.0691C2.55376 10.0742 2.5426 10.0798 2.53123 10.0857C2.54685 10.095 2.56181 10.1031 2.5751 10.1097C2.58786 10.1161 2.59759 10.1205 2.60292 10.1228L5.22177 11.0508C5.26971 11.0678 5.31439 11.0903 5.35541 11.1175L14.0027 5.78897L14.0108 5.78393C14.0171 5.78002 14.0254 5.77498 14.0353 5.76908C14.055 5.75737 14.082 5.74177 14.1142 5.72454C14.1742 5.69239 14.2702 5.64466 14.3784 5.60947C14.4537 5.58497 14.6758 5.51594 14.9158 5.597C15.064 5.64703 15.2174 5.75458 15.3172 5.93678C15.3668 6.0273 15.3932 6.11822 15.406 6.20146C15.44 6.33259 15.4346 6.46206 15.408 6.57385C15.3507 6.81464 15.19 7.00247 15.0437 7.14614C14.9185 7.26931 13.2973 8.91479 11.698 10.5391C10.9005 11.3492 10.111 12.1512 9.52101 12.7508L9.13347 13.1446L14.0267 17.0936C14.139 17.1359 14.2053 17.1337 14.236 17.1293C14.2726 17.124 14.3025 17.1092 14.3331 17.0835C14.3673 17.0547 14.3972 17.0158 14.4195 16.9787L14.4204 16.9772L16.8292 4.19383C16.7934 4.20287 16.7573 4.21364 16.7224 4.22532C16.683 4.23854 16.6505 4.25113 16.6289 4.25993C16.6182 4.26429 16.6105 4.26759 16.6063 4.26941L16.6049 4.27001ZM9.55386 15.1418L8.57762 14.354L8.34107 15.938L9.55386 15.1418ZM7.68205 12.7907L8.65286 11.8041C9.24293 11.2045 10.0324 10.4024 10.83 9.59227L11.6405 8.76925L6.20711 12.1173L6.23626 12.1897C6.38434 12.5573 6.58405 13.055 6.79037 13.5746C6.94465 13.9632 7.10597 14.3723 7.25291 14.751L7.48877 13.1717C7.51151 13.0195 7.58218 12.8877 7.68205 12.7907Z" fill="#E6E6E6"/>
</svg>
